# xmcd
#
# Track frame offsets: 
#        150
#        13655
#        27319
#        43975
#        62159
#        84216
#        101136
#        115751
#        136637
#        153789
#        169775
#        188108
#        205079
#        220203
#        234695
#        249619
#        267940
#        283754
#        298326
#        312215
#
# Disc length: 4393 seconds
#
# Revision: 0
# Processed by: cddbd v1.5.2PL0 Copyright (c) Steve Scherf et al.
# Submitted via: ExactAudioCopy v0.99pb5
#
DISCID=22112714
DTITLE=Various Artist - Country Box-cd2
DYEAR=2010
DGENRE=Country
TTITLE0=Brooks And Dunn - Little Miss Honky Tonk
TTITLE1=Tim McGraw - Indian Outlaw 
TTITLE2=The Mcclymonts - Wrapped Up Good
TTITLE3=Trisha Yearwood - How Do I Live
TTITLE4=Lee Ann Womack - I Hope You Dance
TTITLE5=Vince Gill - Tryin' To Get Over You 
TTITLE6=Steve Ford - Guns and Guitars
TTITLE7=Lucinda Williams - Righteously
TTITLE8=Ryan Adams - New York, New York
TTITLE9=Terri Clark - Girls Lie Too
TTITLE10=All Kinds Of Touch - Girls Lie Too
TTITLE11=Martina Mcbride - Wild Of Angels
TTITLE12=Jasmine Rae - Country Singer 
TTITLE13=Peter McWhirter - Humm
TTITLE14=Sara Storer - Call Me home
TTITLE15=Hayes Carll - She Left Me For Jesus
TTITLE16=Aaron Tippin - Workin' Man's Ph.D 
TTITLE17=Rosane Cash - My Baby Thinks He's A Train
TTITLE18=Patty Loveless - Here I Am 
TTITLE19=Matt Joe Gow and The Dead - I Let You Be
EXTD=
EXTT0=
EXTT1=
EXTT2=
EXTT3=
EXTT4=
EXTT5=
EXTT6=
EXTT7=
EXTT8=
EXTT9=
EXTT10=
EXTT11=
EXTT12=
EXTT13=
EXTT14=
EXTT15=
EXTT16=
EXTT17=
EXTT18=
EXTT19=
PLAYORDER=
